<svg xmlns="http://www.w3.org/2000/svg" version="1.1" xmlns:xlink="http://www.w3.org/1999/xlink" xmlns:svgjs="http://svgjs.dev/svgjs" width="1440" height="720" preserveAspectRatio="none" viewBox="0 0 1440 720"><g mask="url(&quot;#SvgjsMask1022&quot;)" fill="none"><path d="M463.3 355.59L465.09 355.59L465.09 357.38L463.3 357.38z" fill="rgba(253, 231, 76, 0.49)"></path><path d="M507.35 620.22L538.05 620.22L538.05 650.92L507.35 650.92z" stroke="rgba(4, 238, 36, 0.36)"></path><path d="M281.9 78.09L322.68 78.09L322.68 119.15L281.9 119.15z" stroke="rgba(210, 74, 13, 0.4)"></path><path d="M434.63 30.3a30.84 30.84 0 1 0 50.94-34.78z" fill="rgba(210, 74, 13, 0.4)"></path><path d="M90.67 356.06a13.99 13.99 0 1 0-23.21 15.62z" fill="rgba(210, 74, 13, 0.4)"></path><path d="M1254.77 31.59 a12.93 12.93 0 1 0 25.86 0 a12.93 12.93 0 1 0 -25.86 0z" fill="rgba(4, 238, 36, 0.36)"></path><path d="M156.1 710L216.14 710L216.14 770.04L156.1 770.04z" stroke="rgba(210, 74, 13, 0.4)"></path><path d="M612.12 430.98a20.2 20.2 0 1 0-18.44 35.94z" fill="rgba(210, 74, 13, 0.4)"></path><path d="M440.62 94.85a59.18 59.18 0 1 0-57.39-103.52z" stroke="rgba(4, 238, 36, 0.36)"></path><path d="M258.55 655.29 a28.52 28.52 0 1 0 57.04 0 a28.52 28.52 0 1 0 -57.04 0z" stroke="rgba(210, 74, 13, 0.4)"></path><path d="M81.4 473.78L92.34 473.78L92.34 484.72L81.4 484.72z" stroke="rgba(253, 231, 76, 0.49)"></path><path d="M274.49 618.06a46.67 46.67 0 1 0 43.72-82.47z" fill="rgba(210, 74, 13, 0.4)"></path><path d="M1064.55 430.75L1116.28 430.75L1116.28 482.48L1064.55 482.48z" stroke="rgba(253, 231, 76, 0.49)"></path><path d="M964.25 332.2L975.5 332.2L975.5 360.98L964.25 360.98z" fill="rgba(4, 238, 36, 0.36)"></path><path d="M1424.45 291.76L1477.72 291.76L1477.72 347.68L1424.45 347.68z" fill="rgba(210, 74, 13, 0.4)"></path><path d="M971.15 457.81a30.26 30.26 0 1 0 60.52 0.3z" fill="rgba(4, 238, 36, 0.36)"></path><path d="M30.65 50.05 a19.55 19.55 0 1 0 39.1 0 a19.55 19.55 0 1 0 -39.1 0z" stroke="rgba(210, 74, 13, 0.4)"></path><path d="M1130.76 384.3L1138.13 384.3L1138.13 385.24L1130.76 385.24z" fill="rgba(4, 238, 36, 0.36)"></path><path d="M1365.15 698.79a36.12 36.12 0 1 0 44.81-56.66z" fill="rgba(4, 238, 36, 0.36)"></path><path d="M542.86 713.68L580.27 713.68L580.27 749.26L542.86 749.26z" stroke="rgba(210, 74, 13, 0.4)"></path><path d="M156.03 28.54L180.71 28.54L180.71 85.41L156.03 85.41z" stroke="rgba(253, 231, 76, 0.49)"></path><path d="M196.15 680.92L250.94 680.92L250.94 735.71L196.15 735.71z" stroke="rgba(4, 238, 36, 0.36)"></path><path d="M251.01 585.97a25.53 25.53 0 1 0-50.29-8.85z" fill="rgba(4, 238, 36, 0.36)"></path><path d="M409.32 702.62a44.74 44.74 0 1 0 86.76-21.9z" fill="rgba(210, 74, 13, 0.4)"></path><path d="M373.47 49.9 a51.44 51.44 0 1 0 102.88 0 a51.44 51.44 0 1 0 -102.88 0z" fill="rgba(253, 231, 76, 0.49)"></path></g><defs><mask id="SvgjsMask1022"><rect width="1440" height="720" fill="#ffffff"></rect></mask></defs></svg>